<?xml version="1.0" standalone="no"?>
<!DOCTYPE svg PUBLIC "-//W3C//DTD SVG 20010904//EN"
 "http://www.w3.org/TR/2001/REC-SVG-20010904/DTD/svg10.dtd">
<svg version="1.0" xmlns="http://www.w3.org/2000/svg"
 width="192.000000pt" height="192.000000pt" viewBox="0 0 192.000000 192.000000"
 preserveAspectRatio="xMidYMid meet">
<metadata>
Created by potrace 1.14, written by Peter Selinger 2001-2017
</metadata>
<g transform="translate(0.000000,192.000000) scale(0.100000,-0.100000)"
fill="#000000" stroke="none">
<path d="M69 1902 c-1 -9 -1 -21 0 -26 1 -5 -5 -3 -14 4 -14 11 -16 11 -13 -1
2 -8 -3 -13 -11 -11 -12 3 -12 0 -2 -12 9 -11 9 -16 0 -22 -7 -4 -9 -3 -6 3 4
6 0 13 -7 16 -13 5 -15 -118 -15 -894 1 -542 4 -897 10 -893 5 3 9 1 9 -5 0
-6 8 -7 17 -4 13 5 15 2 10 -12 -6 -15 -5 -16 8 -5 13 11 16 11 13 -1 -2 -8
-7 -18 -13 -22 -5 -5 1 -5 14 -2 15 5 21 3 17 -3 -4 -7 271 -11 879 -11 869 0
885 0 895 20 6 11 8 23 5 28 -3 5 3 8 12 6 43 -7 43 -25 42 911 0 539 -4 892
-10 888 -5 -3 -9 -1 -9 5 0 6 -8 7 -17 4 -13 -5 -15 -2 -10 12 6 15 5 16 -8 5
-13 -11 -16 -11 -13 1 2 8 8 18 13 22 6 5 -1 5 -14 2 -15 -5 -21 -3 -17 3 4 7
-273 11 -879 11 -826 0 -885 -1 -886 -17z m41 -2 c0 -5 -2 -10 -4 -10 -3 0 -8
5 -11 10 -3 6 -1 10 4 10 6 0 11 -4 11 -10z m1792 -1824 c7 4 8 2 4 -5 -9 -13
-26 -5 -25 12 0 9 2 8 6 -1 2 -6 10 -9 15 -6z"/>
</g>
</svg>
